<svg width="20" height="20" viewBox="0 0 20 20" fill="none" xmlns="http://www.w3.org/2000/svg">
<path d="M11.3257 9.99998L15.0366 6.28904C15.2128 6.11323 15.3118 5.87466 15.312 5.62581C15.3123 5.37695 15.2136 5.13821 15.0378 4.96209C14.862 4.78597 14.6234 4.6869 14.3746 4.68668C14.1257 4.68646 13.887 4.78511 13.7109 4.96092L9.99992 8.67185L6.28898 4.96092C6.11286 4.7848 5.87399 4.68585 5.62492 4.68585C5.37585 4.68585 5.13698 4.7848 4.96085 4.96092C4.78473 5.13704 4.68579 5.37591 4.68579 5.62498C4.68579 5.87405 4.78473 6.11292 4.96085 6.28904L8.67179 9.99998L4.96085 13.7109C4.78473 13.887 4.68579 14.1259 4.68579 14.375C4.68579 14.6241 4.78473 14.8629 4.96085 15.039C5.13698 15.2152 5.37585 15.3141 5.62492 15.3141C5.87399 15.3141 6.11286 15.2152 6.28898 15.039L9.99992 11.3281L13.7109 15.039C13.887 15.2152 14.1258 15.3141 14.3749 15.3141C14.624 15.3141 14.8629 15.2152 15.039 15.039C15.2151 14.8629 15.314 14.6241 15.314 14.375C15.314 14.1259 15.2151 13.887 15.039 13.7109L11.3257 9.99998Z" fill="#222222"/>
</svg>
