<svg width="24" height="24" viewBox="0 0 24 24" fill="none" xmlns="http://www.w3.org/2000/svg">
<path d="M13.7071 6.29295C13.3166 5.90243 12.6836 5.90243 12.293 6.29295C11.9025 6.68348 11.9025 7.31649 12.293 7.70702L16.586 12L12.293 16.293C11.9025 16.6835 11.9025 17.3165 12.293 17.707C12.6836 18.0975 13.3166 18.0975 13.7071 17.707L18.7071 12.707C19.0976 12.3165 19.0976 11.6835 18.7071 11.293L13.7071 6.29295Z" fill="#21272A"/>
<path d="M6.70711 6.29295C6.31658 5.90243 5.68357 5.90243 5.29304 6.29295C4.90252 6.68348 4.90252 7.31649 5.29304 7.70702L9.58601 12L5.29304 16.293C4.90252 16.6835 4.90252 17.3165 5.29304 17.707C5.68357 18.0975 6.31658 18.0975 6.70711 17.707L11.7071 12.707C12.0976 12.3165 12.0976 11.6835 11.7071 11.293L6.70711 6.29295Z" fill="#21272A"/>
</svg>
