<svg width="20" height="20" viewBox="0 0 20 20" fill="none" xmlns="http://www.w3.org/2000/svg">
<path d="M11.3258 9.99992L15.0367 6.28898C15.2128 6.11317 15.3119 5.8746 15.3121 5.62575C15.3123 5.37689 15.2137 5.13815 15.0379 4.96203C14.8621 4.78591 14.6235 4.68684 14.3746 4.68662C14.1258 4.6864 13.887 4.78505 13.7109 4.96085L9.99998 8.67179L6.28904 4.96085C6.11292 4.78473 5.87405 4.68579 5.62498 4.68579C5.37591 4.68579 5.13704 4.78473 4.96092 4.96085C4.7848 5.13698 4.68585 5.37585 4.68585 5.62492C4.68585 5.87399 4.7848 6.11286 4.96092 6.28898L8.67185 9.99992L4.96092 13.7109C4.7848 13.887 4.68585 14.1258 4.68585 14.3749C4.68585 14.624 4.7848 14.8629 4.96092 15.039C5.13704 15.2151 5.37591 15.314 5.62498 15.314C5.87405 15.314 6.11292 15.2151 6.28904 15.039L9.99998 11.328L13.7109 15.039C13.887 15.2151 14.1259 15.314 14.375 15.314C14.6241 15.314 14.8629 15.2151 15.039 15.039C15.2152 14.8629 15.3141 14.624 15.3141 14.3749C15.3141 14.1258 15.2152 13.887 15.039 13.7109L11.3258 9.99992Z" fill="white"/>
</svg>
